<mxfile host="app.diagrams.net" agent="Mozilla/5.0 (X11; Linux x86_64; rv:138.0) Gecko/20100101 Firefox/138.0" version="27.1.0">
  <diagram name="Page-1" id="sALq_mYJsIHV27RAzlB7">
    <mxGraphModel dx="1426" dy="797" grid="1" gridSize="10" guides="1" tooltips="1" connect="1" arrows="1" fold="1" page="1" pageScale="1" pageWidth="850" pageHeight="1100" math="0" shadow="0">
      <root>
        <mxCell id="0" />
        <mxCell id="1" parent="0" />
        <mxCell id="IadbMeevf03XnhBrfUi4-1" value="" style="strokeWidth=1;shadow=0;dashed=0;align=center;html=1;shape=mxgraph.mockup.containers.browserWindow;rSize=0;strokeColor=#666666;strokeColor2=#008cff;strokeColor3=#c4c4c4;mainText=,;recursiveResize=0;" parent="1" vertex="1">
          <mxGeometry width="850" height="1100" as="geometry" />
        </mxCell>
        <mxCell id="IadbMeevf03XnhBrfUi4-2" value="Home" style="strokeWidth=1;shadow=0;dashed=0;align=center;html=1;shape=mxgraph.mockup.containers.anchor;fontSize=17;fontColor=#666666;align=left;whiteSpace=wrap;" parent="IadbMeevf03XnhBrfUi4-1" vertex="1">
          <mxGeometry x="60" y="12" width="110" height="26" as="geometry" />
        </mxCell>
        <mxCell id="IadbMeevf03XnhBrfUi4-3" value="https://www.bonappeatit.fr" style="strokeWidth=1;shadow=0;dashed=0;align=center;html=1;shape=mxgraph.mockup.containers.anchor;rSize=0;fontSize=17;fontColor=#666666;align=left;" parent="IadbMeevf03XnhBrfUi4-1" vertex="1">
          <mxGeometry x="130" y="60" width="250" height="26" as="geometry" />
        </mxCell>
        <mxCell id="sArDygP2SWiCbv7uEsUI-2" value="" style="rounded=0;whiteSpace=wrap;html=1;" parent="IadbMeevf03XnhBrfUi4-1" vertex="1">
          <mxGeometry y="110" width="850" height="100" as="geometry" />
        </mxCell>
        <mxCell id="sArDygP2SWiCbv7uEsUI-3" value="Login" style="strokeWidth=1;shadow=0;dashed=0;align=center;html=1;shape=mxgraph.mockup.buttons.button;strokeColor=#666666;fontColor=#ffffff;mainText=;buttonStyle=round;fontSize=17;fontStyle=1;fillColor=#008cff;whiteSpace=wrap;" parent="IadbMeevf03XnhBrfUi4-1" vertex="1">
          <mxGeometry x="750" y="140" width="80" height="30" as="geometry" />
        </mxCell>
        <mxCell id="sArDygP2SWiCbv7uEsUI-4" value="" style="verticalLabelPosition=bottom;shadow=0;dashed=0;align=center;html=1;verticalAlign=top;strokeWidth=1;shape=mxgraph.mockup.graphics.simpleIcon;strokeColor=#999999;" parent="IadbMeevf03XnhBrfUi4-1" vertex="1">
          <mxGeometry x="20" y="125" width="70" height="70" as="geometry" />
        </mxCell>
        <mxCell id="Ejg-tMhzFwqjGB6Roqcw-1" value="" style="strokeWidth=1;shadow=0;dashed=0;align=center;html=1;shape=mxgraph.mockup.forms.rrect;rSize=0;strokeColor=#999999;fillColor=#ffffff;" vertex="1" parent="1">
          <mxGeometry x="240" y="270" width="400" height="380" as="geometry" />
        </mxCell>
        <mxCell id="Ejg-tMhzFwqjGB6Roqcw-2" value="Sign In" style="strokeWidth=1;shadow=0;dashed=0;align=center;html=1;shape=mxgraph.mockup.forms.anchor;fontSize=12;fontColor=#666666;align=left;resizeWidth=1;spacingLeft=0;" vertex="1" parent="Ejg-tMhzFwqjGB6Roqcw-1">
          <mxGeometry width="200" height="20" relative="1" as="geometry">
            <mxPoint x="10" y="10" as="offset" />
          </mxGeometry>
        </mxCell>
        <mxCell id="Ejg-tMhzFwqjGB6Roqcw-3" value="" style="shape=line;strokeColor=#ddeeff;strokeWidth=2;html=1;resizeWidth=1;" vertex="1" parent="Ejg-tMhzFwqjGB6Roqcw-1">
          <mxGeometry width="360" height="10" relative="1" as="geometry">
            <mxPoint x="10" y="30" as="offset" />
          </mxGeometry>
        </mxCell>
        <mxCell id="Ejg-tMhzFwqjGB6Roqcw-4" value="User Name:" style="strokeWidth=1;shadow=0;dashed=0;align=center;html=1;shape=mxgraph.mockup.forms.anchor;fontSize=12;fontColor=#666666;align=left;resizeWidth=1;spacingLeft=0;" vertex="1" parent="Ejg-tMhzFwqjGB6Roqcw-1">
          <mxGeometry width="200" height="20" relative="1" as="geometry">
            <mxPoint x="44" y="40" as="offset" />
          </mxGeometry>
        </mxCell>
        <mxCell id="Ejg-tMhzFwqjGB6Roqcw-5" value="johndoe" style="strokeWidth=1;shadow=0;dashed=0;align=center;html=1;shape=mxgraph.mockup.forms.rrect;rSize=0;strokeColor=#999999;fontColor=#666666;align=left;spacingLeft=5;resizeWidth=1;" vertex="1" parent="Ejg-tMhzFwqjGB6Roqcw-1">
          <mxGeometry width="300" height="25" relative="1" as="geometry">
            <mxPoint x="44" y="60" as="offset" />
          </mxGeometry>
        </mxCell>
        <mxCell id="Ejg-tMhzFwqjGB6Roqcw-6" value="Password:" style="strokeWidth=1;shadow=0;dashed=0;align=center;html=1;shape=mxgraph.mockup.forms.anchor;fontSize=12;fontColor=#666666;align=left;resizeWidth=1;spacingLeft=0;" vertex="1" parent="Ejg-tMhzFwqjGB6Roqcw-1">
          <mxGeometry width="200" height="20" relative="1" as="geometry">
            <mxPoint x="44" y="95" as="offset" />
          </mxGeometry>
        </mxCell>
        <mxCell id="Ejg-tMhzFwqjGB6Roqcw-7" value="********" style="strokeWidth=1;shadow=0;dashed=0;align=center;html=1;shape=mxgraph.mockup.forms.rrect;rSize=0;strokeColor=#999999;fontColor=#666666;align=left;spacingLeft=5;resizeWidth=1;" vertex="1" parent="Ejg-tMhzFwqjGB6Roqcw-1">
          <mxGeometry width="300" height="25" relative="1" as="geometry">
            <mxPoint x="44" y="115" as="offset" />
          </mxGeometry>
        </mxCell>
        <mxCell id="Ejg-tMhzFwqjGB6Roqcw-8" value="SIGN IN" style="strokeWidth=1;shadow=0;dashed=0;align=center;html=1;shape=mxgraph.mockup.forms.rrect;rSize=5;strokeColor=none;fontColor=#ffffff;fillColor=#66bbff;fontSize=16;fontStyle=1;" vertex="1" parent="Ejg-tMhzFwqjGB6Roqcw-1">
          <mxGeometry y="1" width="300" height="30" relative="1" as="geometry">
            <mxPoint x="44" y="-214" as="offset" />
          </mxGeometry>
        </mxCell>
        <mxCell id="Ejg-tMhzFwqjGB6Roqcw-9" value="Forgot Password?" style="strokeWidth=1;shadow=0;dashed=0;align=center;html=1;shape=mxgraph.mockup.forms.anchor;fontSize=12;fontColor=#9999ff;align=left;spacingLeft=0;fontStyle=4;resizeWidth=1;" vertex="1" parent="Ejg-tMhzFwqjGB6Roqcw-1">
          <mxGeometry y="1" width="300" height="20" relative="1" as="geometry">
            <mxPoint x="43" y="-237" as="offset" />
          </mxGeometry>
        </mxCell>
        <mxCell id="Ejg-tMhzFwqjGB6Roqcw-10" value="" style="shape=line;strokeColor=#ddeeff;strokeWidth=2;html=1;resizeWidth=1;" vertex="1" parent="Ejg-tMhzFwqjGB6Roqcw-1">
          <mxGeometry y="1" width="320" height="10" relative="1" as="geometry">
            <mxPoint x="33" y="-177" as="offset" />
          </mxGeometry>
        </mxCell>
        <mxCell id="Ejg-tMhzFwqjGB6Roqcw-13" value="Sign up" style="strokeWidth=1;shadow=0;dashed=0;align=center;html=1;shape=mxgraph.mockup.forms.anchor;fontSize=12;fontColor=#9999ff;align=left;spacingLeft=0;fontStyle=4;resizeWidth=1;" vertex="1" parent="Ejg-tMhzFwqjGB6Roqcw-1">
          <mxGeometry y="1" width="120" height="20" relative="1" as="geometry">
            <mxPoint x="112" y="-162" as="offset" />
          </mxGeometry>
        </mxCell>
        <mxCell id="Ejg-tMhzFwqjGB6Roqcw-14" value="New user ?" style="text;html=1;align=center;verticalAlign=middle;whiteSpace=wrap;rounded=0;fontColor=light-dark(#000000,#666666);" vertex="1" parent="Ejg-tMhzFwqjGB6Roqcw-1">
          <mxGeometry x="40" y="213" width="74" height="30" as="geometry" />
        </mxCell>
      </root>
    </mxGraphModel>
  </diagram>
</mxfile>
